<svg version="1.1" width="57" height="57" viewBox="-1 -1 57 57" xmlns="http://www.w3.org/2000/svg" xmlns:xlink="http://www.w3.org/1999/xlink">
  <!-- Exported by Scratch - http://scratch.mit.edu/ -->
  <g id="ID0.48288227524608374">
    <path id="ID0.972628403455019" fill="#00A3C6" stroke="none" d="M 0 0 L 0 55 L 55 55 L 55 0 L 0 0 Z "/>
    <path id="ID0.6771354894153774" fill="#FFFFFF" stroke="none" d="M 27 3 C 21.891 12.599 14.740 21.783 11 32 C 16.132 29.334 18.771 23.173 21 18 L 23 18 C 24.136 21.862 26.454 28.554 30.390 30.397 C 33.582 31.891 38.547 31 42 31 C 41.071 21.980 33.159 9.556 27 3 Z "/>
    <path id="ID0.5847647208720446" fill="#b1dce6" stroke="none" d="M 26 4 L 27 5 L 26 4 Z "/>
    <path id="ID0.009403182193636894" fill="#afdce5" stroke="none" d="M 28 4 L 29 5 L 28 4 Z "/>
    <path id="ID0.8081826935522258" fill="#55bfd5" stroke="none" d="M 25 5 L 26 6 L 25 5 Z "/>
    <path id="ID0.04063613899052143" fill="#53bed5" stroke="none" d="M 29 5 L 30 6 L 29 5 Z "/>
    <path id="ID0.4434047290123999" fill="#76cadb" stroke="none" d="M 24 7 L 25 8 L 24 7 Z "/>
    <path id="ID0.21742321457713842" fill="#74c9db" stroke="none" d="M 30 7 L 31 8 L 30 7 Z "/>
    <path id="ID0.53556506941095" fill="#9ed6e2" stroke="none" d="M 23 9 L 24 10 L 23 9 Z "/>
    <path id="ID0.32343747187405825" fill="#9cd6e2" stroke="none" d="M 31 9 L 32 10 L 31 9 Z "/>
    <path id="ID0.09743569325655699" fill="#5bc1d6" stroke="none" d="M 21 12 L 22 13 L 21 12 Z "/>
    <path id="ID0.9776072185486555" fill="#59c0d6" stroke="none" d="M 33 12 L 34 13 L 33 12 Z "/>
    <path id="ID0.24259303137660027" fill="#86cede" stroke="none" d="M 20 14 L 21 15 L 20 14 Z "/>
    <path id="ID0.8988258456811309" fill="#85cede" stroke="none" d="M 34 14 L 35 15 L 34 14 Z "/>
    <path id="ID0.6772798551246524" fill="#a8d9e4" stroke="none" d="M 19 16 L 20 17 L 19 16 Z "/>
    <path id="ID0.604530859272927" fill="#a6d9e4" stroke="none" d="M 35 16 L 36 17 L 35 16 Z "/>
    <path id="ID0.3164482582360506" fill="#ffffff" stroke="none" d="M 21 18 L 13 32 L 44 32 L 43 29 C 32.429 34.879 26.914 27.083 23 18 L 21 18 Z "/>
    <path id="ID0.22521294048056006" fill="#6bc6d9" stroke="none" d="M 17 19 L 18 20 L 17 19 Z "/>
    <path id="ID0.21202718326821923" fill="#69c5d9" stroke="none" d="M 37 19 L 38 20 L 37 19 Z "/>
    <path id="ID0.854121430311352" fill="#8bd0df" stroke="none" d="M 16 21 L 17 22 L 16 21 Z "/>
    <path id="ID0.026345892809331417" fill="#8ad0df" stroke="none" d="M 38 21 L 39 22 L 38 21 Z "/>
    <path id="ID0.5752919120714068" fill="#aedce5" stroke="none" d="M 15 23 L 16 24 L 15 23 Z "/>
    <path id="ID0.31992517644539475" fill="#4fbdd4" stroke="none" d="M 14 24 L 15 25 L 14 24 Z "/>
    <path id="ID0.6548852645792067" fill="#4dbdd4" stroke="none" d="M 40 24 L 41 25 L 40 24 Z "/>
    <path id="ID0.46521051973104477" fill="#70c7da" stroke="none" d="M 13 26 L 14 27 L 13 26 Z "/>
    <path id="ID0.30470644123852253" fill="#6ec7da" stroke="none" d="M 41 26 L 42 27 L 41 26 Z "/>
    <path id="ID0.8713506194762886" fill="#95d3e1" stroke="none" d="M 12 28 L 13 29 L 12 28 Z "/>
    <path id="ID0.8136744266375899" fill="#93d3e0" stroke="none" d="M 42 28 L 43 29 L 42 28 Z "/>
    <path id="ID0.2997667072340846" fill="#b5dde6" stroke="none" d="M 43 30 L 44 31 L 43 30 Z "/>
    <path id="ID0.7316952580586076" fill="#b3e3ee" stroke="none" d="M 10 31 C 12.103 33.407 14.895 32.994 18 33 L 37 33 C 40.105 32.994 42.897 33.407 45 31 C 34.862 33.414 20.138 33.414 10 31 Z "/>
    <path id="ID0.4227820741944015" fill="#33b5d1" stroke="none" d="M 12 34 C 17.715 36.398 25.831 35 32 35 C 26.285 32.602 18.169 34 12 34 M 34 34 C 37.697 35.551 42.017 35 46 35 C 42.303 33.449 37.983 34 34 34 Z "/>
    <path id="ID0.29801468597725034" fill="#ffffff" stroke="none" d="M 5 47 L 39 47 C 37.153 43.529 35.067 38.181 31.621 36.028 C 28.137 33.850 15.052 33.669 11.634 36.028 C 8.435 38.235 6.485 43.554 5 47 Z "/>
    <path id="ID0.08676332794129848" fill="#60c6db" stroke="none" d="M 32 35 L 33 36 L 32 35 Z "/>
    <path id="ID0.6890739030204713" fill="#b1e3ee" stroke="none" d="M 34 35 L 35 36 L 34 35 Z "/>
    <path id="ID0.2855136883445084" fill="#ffffff" stroke="none" d="M 35 35 C 38.272 45.337 42.948 47 53 47 C 48.863 37.400 45.192 35 35 35 Z "/>
    <path id="ID0.6585680041462183" fill="#b3e4ee" stroke="none" d="M 46 35 L 47 36 L 46 35 Z "/>
    <path id="ID0.49423750676214695" fill="#63c7dc" stroke="none" d="M 10 36 L 11 37 L 10 36 Z "/>
    <path id="ID0.2657979689538479" fill="#4cbfd7" stroke="none" d="M 47 36 L 48 37 L 47 36 Z "/>
    <path id="ID0.35600830242037773" fill="#87d4e5" stroke="none" d="M 33 37 L 34 38 L 33 37 Z "/>
    <path id="ID0.5889904010109603" fill="#7ad0e2" stroke="none" d="M 35 37 L 36 38 L 35 37 Z "/>
    <path id="ID0.3075257418677211" fill="#8fd7e6" stroke="none" d="M 9 38 L 10 39 L 9 38 Z "/>
    <path id="ID0.31761382054537535" fill="#73cde0" stroke="none" d="M 48 38 L 49 39 L 48 38 Z "/>
    <path id="ID0.8782820217311382" fill="#b5e4ef" stroke="none" d="M 34 39 L 35 40 L 34 39 Z "/>
    <path id="ID0.0744087491184473" fill="#b3e3ee" stroke="none" d="M 8 40 L 9 41 L 8 40 Z "/>
    <path id="ID0.8151346715167165" fill="#aae1ec" stroke="none" d="M 37 40 L 38 41 L 37 40 Z "/>
    <path id="ID0.11389111541211605" fill="#98dae8" stroke="none" d="M 49 40 L 50 41 L 49 40 Z "/>
    <path id="ID0.43049008771777153" fill="#47bdd6" stroke="none" d="M 7 41 L 8 42 L 7 41 Z "/>
    <path id="ID0.727316003292799" fill="#6bcadf" stroke="none" d="M 36 42 L 37 43 L 36 42 Z "/>
    <path id="ID0.5354290860705078" fill="#7ad0e2" stroke="none" d="M 38 42 L 39 43 L 38 42 Z "/>
    <path id="ID0.34666958544403315" fill="#71ccdf" stroke="none" d="M 6 43 L 7 44 L 6 43 Z "/>
    <path id="ID0.6345066749490798" fill="#55c2d9" stroke="none" d="M 51 43 L 52 44 L 51 43 Z "/>
    <path id="ID0.062067143619060516" fill="#98dae8" stroke="none" d="M 37 44 L 38 45 L 37 44 Z "/>
    <path id="ID0.5005672834813595" fill="#91d7e6" stroke="none" d="M 5 45 L 6 46 L 5 45 Z "/>
    <path id="ID0.04679107293486595" fill="#abe1ec" stroke="none" d="M 40 45 L 41 46 L 40 45 Z "/>
    <path id="ID0.9297549999319017" fill="#79cfe1" stroke="none" d="M 52 45 L 53 46 L 52 45 Z "/>
    <path id="ID0.04290395136922598" fill="#4ebfd8" stroke="none" d="M 4.333 46.667 C 4.278 46.722 4.222 47.778 4.667 47.333 C 4.722 47.278 4.778 46.222 4.333 46.667 Z "/>
    <path id="ID0.18558788485825062" fill="#83d2e3" stroke="none" d="M 5 47 C 8.699 48.552 13.017 48 17 48 L 39 48 C 35.301 46.448 30.983 47 27 47 L 5 47 Z "/>
    <path id="ID0.319460560567677" fill="#98dae8" stroke="none" d="M 41 47 C 44.697 48.551 49.017 48 53 48 C 49.303 46.449 44.983 47 41 47 Z "/>
    <path id="ID0.7941546998918056" fill="#5bc4da" stroke="none" d="M 53 47 L 54 48 L 53 47 Z "/>
  </g>
</svg>