<svg version="1.1" width="124" height="124" viewBox="-1 -1 124 124" xmlns="http://www.w3.org/2000/svg" xmlns:xlink="http://www.w3.org/1999/xlink">
  <!-- Exported by Scratch - http://scratch.mit.edu/ -->
  <path id="ID0.16747998679056764" fill="#04A4C7" stroke="#00A3C6" stroke-width="2" d="M 214 154 L 268 154 L 268 208 L 214 208 L 214 154 Z " transform="matrix(2.1803572177886963, 0, 0, 2.1803572177886963, -463.65, -332.8)"/>
  <path id="ID0.9658932322636247" fill="none" stroke="#FFFFFF" stroke-width="2" stroke-linecap="round" d="M 223.750 185.500 L 240.500 156 L 257.500 184.500 L 224 185.500 Z " transform="matrix(2.2099547386169434, 0, 0, 2.2099547386169434, -473.2, -335.7)"/>
  <path id="ID0.56297810934484" fill="none" stroke="#FFFFFF" stroke-width="2" stroke-linecap="round" d="M 247.750 188 L 258.750 188.250 L 265.750 199.200 L 254.750 199.200 L 247.750 188 Z " transform="matrix(2.2099547386169434, 0, 0, 2.2099547386169434, -473.2, -335.7)"/>
  <path id="ID0.782293223310262" fill="none" stroke="#FFFFFF" stroke-width="2" stroke-linecap="round" d="M 218.750 198.250 L 224.250 189 L 244.500 188.200 L 250 198.700 L 219 198.200 Z " transform="matrix(2.2099547386169434, 0, 0, 2.2099547386169434, -473.2, -335.7)"/>
</svg>