<?xml version="1.0" standalone="yes"?>

<svg version="1.1" viewBox="0.0 0.0 1000.0 1000.0" fill="none" stroke="none" stroke-linecap="square" stroke-miterlimit="10" xmlns="http://www.w3.org/2000/svg" xmlns:xlink="http://www.w3.org/1999/xlink"><clipPath id="p.0"><path d="m0 0l1000.0 0l0 1000.0l-1000.0 0l0 -1000.0z" clip-rule="nonzero"></path></clipPath><g clip-path="url(#p.0)"><path fill="#000000" fill-opacity="0.0" d="m0 0l1000.0 0l0 1000.0l-1000.0 0z" fill-rule="nonzero"></path><path fill="#00a3c6" d="m0 322.2163l0 0c0 -177.06802 143.54199 -320.61002 320.61 -320.61002l358.78003 0l0 0c85.03107 0 166.57947 33.778454 226.7055 93.904495c60.126038 60.12603 93.90448 141.67444 93.90448 226.7055l0 358.77997l0 0c0 177.06805 -143.54199 320.61005 -320.61 320.61005l-358.78003 0c-177.068 0 -320.61 -143.54199 -320.61 -320.61005z" fill-rule="nonzero"></path><path fill="#ffffff" d="m362.79858 782.9748c-8.606842 5.118286 -25.831207 111.48193 -51.6409 30.709839c-25.809692 -80.77203 -104.090454 -402.1514 -103.2173 -515.3422c0.87316895 -113.19086 90.38023 -136.50237 108.45628 -163.80284" fill-rule="nonzero"></path><path stroke="#ffffff" stroke-width="1.0" stroke-linejoin="round" stroke-linecap="butt" d="m362.79858 782.9748c-8.606842 5.118286 -25.831207 111.48193 -51.6409 30.709839c-25.809692 -80.77203 -104.090454 -402.1514 -103.2173 -515.3422c0.87316895 -113.19086 90.38023 -136.50237 108.45628 -163.80284" fill-rule="nonzero"></path><path fill="#ffffff" d="m813.3814 782.3289c-9.15448 5.055969 -25.55371 116.92279 -54.92694 30.335876c-29.37323 -86.586914 -122.342834 -429.08475 -121.31238 -549.8574c1.0304565 -120.77266 106.24591 -145.64877 127.495056 -174.77853" fill-rule="nonzero"></path><path stroke="#ffffff" stroke-width="1.0" stroke-linejoin="round" stroke-linecap="butt" d="m813.3814 782.3289c-9.15448 5.055969 -25.55371 116.92279 -54.92694 30.335876c-29.37323 -86.586914 -122.342834 -429.08475 -121.31238 -549.8574c1.0304565 -120.77266 106.24591 -145.64877 127.495056 -174.77853" fill-rule="nonzero"></path><path fill="#ffffff" d="m313.042 136.80954c19.626831 4.6046906 53.292572 -57.365295 117.760925 27.628113c64.46835 84.99341 214.6742 366.4752 269.0492 482.33237c54.375 115.85712 47.667297 177.34204 57.200745 212.81049" fill-rule="nonzero"></path><path stroke="#ffffff" stroke-width="1.0" stroke-linejoin="round" stroke-linecap="butt" d="m313.042 136.80954c19.626831 4.6046906 53.292572 -57.365295 117.760925 27.628113c64.46835 84.99341 214.6742 366.4752 269.0492 482.33237c54.375 115.85712 47.667297 177.34204 57.200745 212.81049" fill-rule="nonzero"></path></g></svg>

